HIERARCHY
ROOT Hips
{
	OFFSET 0.000000 0.000000 0.000000 
	CHANNELS 6 Xposition Yposition Zposition Yrotation Zrotation Xrotation 
	JOINT Lumbar
	{
		OFFSET 0.000000 0.000000 0.000000 
		CHANNELS 3 Zrotation Xrotation Yrotation
		JOINT Neck
		{
			OFFSET 0.000000 0.445665 0.000000 
			CHANNELS 3 Zrotation Xrotation Yrotation
			End Site
			{
				OFFSET 0.000000 0.227535 0.000000 
			}
		}
		JOINT RightShoulder
		{
			OFFSET 0.019635 0.377685 0.194865 
			CHANNELS 3 Zrotation Xrotation Yrotation
			JOINT RightElbow
			{
				OFFSET 0.000000 -0.243375 0.000000 
				CHANNELS 2 Zrotation Yrotation
				JOINT RightWrist
				{
					OFFSET 0.000000 -0.264825 0.000000 
					CHANNELS 2 Zrotation Xrotation
					End Site
					{
						OFFSET 0.006600 -0.176220 0.000990 
					}
				}
			}
		}
		JOINT LeftShoulder
		{
			OFFSET 0.019635 0.377685 -0.194865 
			CHANNELS 3 Zrotation Xrotation Yrotation
			JOINT LeftElbow
			{
				OFFSET 0.000000 -0.243375 0.000000 
				CHANNELS 2 Zrotation Yrotation
				JOINT LeftWrist
				{
					OFFSET 0.000000 -0.264825 0.000000 
					CHANNELS 2 Zrotation Xrotation
					End Site
					{
						OFFSET 0.006600 -0.176220 -0.000990 
					}
				}
			}
		}
	}
	JOINT RightHip
	{
		OFFSET 0.052140 -0.069960 0.075570 
		CHANNELS 3 Zrotation Xrotation Yrotation
		JOINT RightKnee
		{
			OFFSET 0.000000 -0.402270 0.000000 
			CHANNELS 1 Zrotation
			JOINT RightAnkle
			{
				OFFSET 0.000000 -0.404085 0.000000 
				CHANNELS 3 Zrotation Xrotation Yrotation
				End Site
				{
					OFFSET 0.204105 -0.089430 0.008415 
				}
			}
		}
	}
	JOINT LeftHip
	{
		OFFSET 0.052140 -0.069960 -0.075570 
		CHANNELS 3 Zrotation Xrotation Yrotation
		JOINT LeftKnee
		{
			OFFSET 0.000000 -0.402270 0.000000 
			CHANNELS 1 Zrotation
			JOINT LeftAnkle
			{
				OFFSET 0.000000 -0.404085 0.000000 
				CHANNELS 3 Zrotation Xrotation Yrotation
				End Site
				{
					OFFSET 0.204105 -0.089430 -0.008415 
				}
			}
		}
	}
}
MOTION
Frames: 25
Frame Time: 0.02
0.00081 -9e-05 -0.00035 16.13797 -34.87729 -2.19156 58.46753 0.51613 3.58228 -7.66825 -0.65703 -1.16909 117.32558 -83.01729 -87.14081 9.13898 98.54255 -5.10703 -11.26194 166.85975 80.42482 85.71516 5.79012 -72.99587 3.46062 11.24773 50.84428 0.31897 -8.80368 -19.27628 -7.77057 -4.03853 -4.2679 54.19952 0.20732 5.97055 -24.28133 -8.32799 4.09849 4.35007
0.0004 -0.0002 -0.00066 16.21167 -34.83631 -2.23016 58.45014 0.50152 3.53064 -7.68767 -0.64593 -1.16986 114.97147 -83.03703 -87.14137 9.09991 98.2907 -6.08976 -10.99628 165.07215 80.44478 85.85855 5.7898 -72.52345 3.03994 11.33989 50.81348 0.24849 -9.19587 -19.30089 -7.74329 -4.01769 -4.25474 54.16229 0.31142 6.49913 -24.28586 -8.28272 4.06422 4.32525
-1e-05 -0.00031 -0.00096 16.2851 -34.79544 -2.26866 58.43274 0.48695 3.47912 -7.70699 -0.63485 -1.17062 112.62374 -83.05663 -87.14192 9.06077 98.03751 -7.06903 -10.73166 163.28878 80.46473 86.0015 5.78949 -72.05218 2.62049 11.43176 50.78281 0.17818 -9.58697 -19.32548 -7.71609 -3.9969 -4.24162 54.12517 0.41523 7.02635 -24.29037 -8.23756 4.03003 4.30049
-0.00042 -0.00042 -0.00127 16.35857 -34.75458 -2.30714 58.41539 0.47238 3.42763 -7.72634 -0.62379 -1.17139 110.27693 -83.07629 -87.1425 9.02181 97.7861 -8.04867 -10.46688 161.50658 80.48464 86.14445 5.78918 -71.58098 2.20112 11.52368 50.75211 0.10791 -9.97797 -19.35002 -7.6889 -3.97613 -4.2285 54.08805 0.51901 7.55334 -24.29488 -8.19242 3.99586 4.27574
-0.00084 -0.00053 -0.00157 16.43233 -34.7136 -2.34572 58.39808 0.45776 3.37602 -7.74581 -0.61272 -1.17215 107.92355 -83.09612 -87.14303 8.98294 97.53678 -9.03192 -10.20091 159.72034 80.50454 86.28785 5.78886 -71.10924 1.78045 11.61579 50.72127 0.03749 -10.37005 -19.37457 -7.66162 -3.95529 -4.21534 54.05083 0.62307 8.0816 -24.29942 -8.14719 3.96162 4.25093
-0.00125 -0.00064 -0.00188 16.50503 -34.67296 -2.38407 58.38048 0.44331 3.32468 -7.76481 -0.6016 -1.17291 105.58756 -83.11525 -87.14358 8.94322 97.27549 -10.00275 -9.93911 157.94294 80.52461 86.42983 5.78855 -70.63926 1.36355 11.70707 50.69098 -0.03256 -10.75906 -19.39921 -7.6346 -3.93462 -4.20229 54.01391 0.72635 8.60662 -24.30386 -8.10219 3.92753 4.22628
-0.00166 -0.00075 -0.00219 16.5798 -34.63169 -2.42283 58.36349 0.42855 3.27288 -7.78472 -0.59061 -1.17368 103.22062 -83.13574 -87.14426 8.90537 97.03862 -10.99747 -9.6694 156.15057 80.54429 86.5745 5.78823 -70.16499 0.93977 11.80024 50.6596 -0.10329 -11.15377 -19.42365 -7.60708 -3.91364 -4.18903 53.97642 0.83107 9.13752 -24.3085 -8.05677 3.89317 4.20134
-0.00207 -0.00086 -0.00249 16.65262 -34.59101 -2.46121 58.34594 0.41405 3.22147 -7.80381 -0.57948 -1.17444 100.87955 -83.15501 -87.14449 8.86558 96.77916 -11.97024 -9.40664 154.37044 80.5644 86.71671 5.78791 -69.69698 0.52189 11.89109 50.62926 -0.1734 -11.5433 -19.44828 -7.58002 -3.89293 -4.17596 53.93949 0.93449 9.66307 -24.31296 -8.01174 3.85906 4.17666
-0.00249 -0.00097 -0.00279 16.72326 -34.551 -2.49914 58.32768 0.39997 3.17062 -7.82182 -0.56823 -1.17519 98.57955 -83.17268 -87.14551 8.82422 96.49187 -12.91618 -9.15365 152.61052 80.58477 86.85591 5.78762 -69.22722 0.11278 11.9814 50.60003 -0.24275 -11.92636 -19.47315 -7.55355 -3.8726 -4.16315 53.9031 1.03625 10.18207 -24.31716 -7.96715 3.82523 4.15233
-0.00289 -0.00109 -0.00311 16.80703 -34.50697 -2.53971 58.31343 0.38374 3.11682 -7.84582 -0.55783 -1.176 96.07157 -83.19922 -87.14601 8.79432 96.36401 -14.01653 -8.84828 150.75001 80.60283 87.01239 5.78723 -68.73924 -0.34212 12.08172 50.56394 -0.31646 -12.34624 -19.49666 -7.52377 -3.85025 -4.14895 53.86317 1.14735 10.73878 -24.32272 -7.91992 3.78974 4.12605
-0.00332 -0.00118 -0.00339 16.86275 -34.47155 -2.57467 58.29076 0.3719 3.0691 -7.85733 -0.54557 -1.1767 93.98458 -83.20726 -87.14503 8.7387 95.90045 -14.79103 -8.65097 149.09199 80.62631 87.13243 5.78704 -68.30785 -0.70336 12.1565 50.54261 -0.38096 -12.68867 -19.523 -7.50089 -3.83206 -4.13761 53.831 1.23889 11.21585 -24.3255 -7.87833 3.75778 4.10387
-0.00379 -0.0012 -0.00357 16.8436 -34.45859 -2.59451 58.24411 0.37339 3.03904 -7.83316 -0.52863 -1.17706 93.19977 -83.16008 -87.14957 8.62549 94.50146 -14.66467 -8.77304 148.05296 80.65976 87.15134 5.78741 -67.87596 -0.77997 12.19821 50.55994 -0.42007 -12.81434 -19.55765 -7.49781 -3.82622 -4.13464 53.81772 1.27494 11.47274 -24.31994 -7.85185 3.73536 4.09298
-0.00429 -0.00119 -0.00372 16.79584 -34.45443 -2.60864 58.18904 0.37897 3.01471 -7.79681 -0.50979 -1.17737 92.80391 -83.09368 -87.14293 8.48479 92.76888 -14.21325 -8.9993 147.19109 80.6992 87.13383 5.78798 -67.52403 -0.76697 12.2083 50.59245 -0.44988 -12.86275 -19.59512 -7.50149 -3.82439 -4.13444 53.81263 1.29166 11.64976 -24.31173 -7.8311 3.71653 4.0862
-0.00478 -0.00119 -0.00388 16.75983 -34.44706 -2.62522 58.13854 0.38193 2.98737 -7.76684 -0.49152 -1.17767 92.14235 -83.04089 -87.14523 8.34722 91.19707 -13.91383 -9.16303 146.22512 80.73961 87.13372 5.78842 -67.24459 -0.81389 12.20757 50.61918 -0.48412 -12.94964 -19.63082 -7.50147 -3.82009 -4.1326 53.80541 1.31839 11.86469 -24.30517 -7.80796 3.69613 4.0775
-0.00527 -0.00118 -0.00405 16.7292 -34.4366 -2.64249 58.08535 0.38842 2.96255 -7.7329 -0.47437 -1.17788 91.88377 -82.97358 -87.16376 8.24603 89.58218 -13.59209 -9.39133 145.41832 80.76603 87.13003 5.78897 -66.52955 -0.78243 12.30948 50.64111 -0.51779 -13.02328 -19.6682 -7.50405 -3.81848 -4.13233 53.79168 1.33993 12.07356 -24.29664 -7.78392 3.6754 4.06899
-0.00576 -0.00119 -0.00419 16.6804 -34.43435 -2.65688 58.03518 0.38813 2.93284 -7.70482 -0.45458 -1.17853 90.84456 -82.92432 -87.10504 8.06645 87.98261 -13.24436 -9.50948 144.2477 80.82101 87.12508 5.78941 -66.71105 -0.88941 12.19466 50.67677 -0.55005 -13.10479 -19.70323 -7.50293 -3.81231 -4.12951 53.79323 1.36768 12.275 -24.29168 -7.76312 3.65629 4.0611
-0.00627 -0.00125 -0.0043 16.5897 -34.45542 -2.66527 58.00028 0.37162 2.89681 -7.69141 -0.42677 -1.17822 87.84833 -82.9896 -87.19838 7.65051 86.47012 -12.865 -9.30054 142.67864 80.96513 87.12604 5.78926 -69.60906 -1.43379 11.44974 50.74581 -0.58402 -13.23961 -19.72737 -7.48896 -3.7916 -4.11847 53.83679 1.41767 12.48558 -24.29661 -7.74973 3.64021 4.05352
-0.00678 -0.00133 -0.00438 16.48121 -34.48399 -2.67076 57.96773 0.34751 2.85406 -7.68491 -0.39667 -1.17875 84.00479 -83.05891 -87.15622 7.16619 84.99272 -12.47726 -8.97657 140.6266 81.13188 87.12662 5.78936 -73.36183 -2.11583 10.49483 50.82849 -0.6163 -13.38282 -19.74992 -7.47116 -3.7663 -4.10485 53.89517 1.47457 12.68975 -24.30545 -7.73936 3.62576 4.04648
-0.00729 -0.00141 -0.00446 16.38036 -34.50719 -2.67733 57.93101 0.32459 2.8088 -7.67854 -0.36832 -1.18031 80.34789 -83.09164 -86.92614 6.72484 83.52209 -12.12047 -8.70365 138.35615 81.2853 87.12746 5.78911 -76.5475 -2.71135 9.66235 50.90522 -0.64711 -13.51374 -19.77543 -7.45582 -3.7438 -4.0928 53.94543 1.52806 12.89002 -24.31274 -7.72773 3.61093 4.03942
-0.00778 -0.00147 -0.00462 16.28147 -34.53866 -2.6851 57.9074 0.31135 2.78728 -7.65902 -0.33664 -1.17589 77.51478 -83.28519 -87.70972 6.21355 81.93919 -11.64152 -8.43986 137.89697 81.46701 87.12785 5.78857 -80.4741 -3.39915 8.71623 50.98066 -0.68689 -13.67718 -19.79089 -7.43791 -3.7186 -4.07927 54.00144 1.58185 13.11556 -24.31851 -7.71603 3.59467 4.03154
-0.00832 -0.00157 -0.00459 16.17331 -34.55498 -2.68926 57.85674 0.27612 2.71459 -7.66734 -0.3117 -1.18416 72.79406 -83.12643 -86.39923 5.8556 80.60873 -11.41452 -8.12798 133.60295 81.576 87.12807 5.7903 -83.07955 -3.93582 7.95556 51.06281 -0.70789 -13.77656 -19.82774 -7.42408 -3.69764 -4.06804 54.04936 1.63711 13.28887 -24.329 -7.70486 3.58179 4.02545
-0.00897 -0.00178 -0.00405 16.05479 -34.52407 -2.68832 57.73424 0.18166 2.50258 -7.76188 -0.30311 -1.22697 62.77221 -82.15255 -78.90863 5.73014 79.91638 -11.92699 -7.71492 118.37004 81.63849 87.1338 5.7865 -81.65156 -3.95665 7.77169 51.15165 -0.67614 -13.69211 -19.91739 -7.42492 -3.69157 -4.06493 54.06719 1.69308 13.31216 -24.34677 -7.6966 3.57738 4.02413
-0.00967 -0.00205 -0.00331 15.92534 -34.47824 -2.6831 57.58372 0.06537 2.23916 -7.88187 -0.30178 -1.28255 50.93582 -80.79464 -69.39099 5.79567 79.48689 -12.68664 -7.25663 99.38539 81.59478 87.1335 5.78861 -78.89543 -3.83086 7.77788 51.24838 -0.62595 -13.54454 -20.03026 -7.42949 -3.68946 -4.06398 54.077 1.75072 13.28492 -24.37014 -7.68833 3.57639 4.02459
-0.01036 -0.0023 -0.00265 15.79429 -34.44158 -2.67719 57.444 -0.04072 1.99908 -7.98348 -0.29916 -1.33251 40.11911 -79.50832 -61.09003 5.91597 78.97311 -13.30809 -6.81578 82.41852 81.49781 87.13857 5.79387 -76.86448 -3.81809 7.69036 51.34683 -0.58495 -13.42901 -20.13635 -7.43076 -3.68428 -4.06135 54.09328 1.80873 13.28596 -24.394 -7.67865 3.57414 4.02426
-0.01102 -0.00251 -0.00203 15.69163 -34.39523 -2.68238 57.31302 -0.14821 1.75908 -8.1155 -0.28858 -1.38186 28.43908 -78.65591 -51.55645 5.45517 78.3162 -14.04038 -6.38259 64.09604 81.83987 87.15281 5.76855 -74.35643 -3.62374 7.63256 51.42286 -0.54 -13.29813 -20.22483 -7.4388 -3.68458 -4.06171 54.09855 1.86205 13.26406 -24.40488 -7.67513 3.57073 4.02386
